<?xml version="1.0" standalone="no"?>
<!DOCTYPE svg PUBLIC "-//W3C//DTD SVG 1.1//EN" "http://www.w3.org/Graphics/SVG/1.1/DTD/svg11.dtd" >
<svg xmlns="http://www.w3.org/2000/svg" xmlns:xlink="http://www.w3.org/1999/xlink" version="1.1">
<metadata>
Created by FontForge 20170731 at Thu Aug  1 19:10:45 2019
 By Aleksey,,,
2019 Iconian Fonts - www.iconian.com
</metadata>
<defs>
<font id="Guardian" horiz-adv-x="886" >
  <font-face 
    font-family="Guardian"
    font-weight="400"
    font-stretch="normal"
    units-per-em="1000"
    panose-1="0 0 0 0 0 0 0 0 0 0"
    ascent="800"
    descent="-200"
    x-height="613"
    cap-height="831"
    bbox="-127 -208 1556 841"
    underline-thickness="50"
    underline-position="-175"
    unicode-range="U+0020-2122"
  />
<missing-glyph horiz-adv-x="500" 
 />
    <glyph glyph-name=".notdef" horiz-adv-x="500" 
 />
    <glyph glyph-name=".null" horiz-adv-x="0" 
 />
    <glyph glyph-name="nonmarkingreturn" horiz-adv-x="500" 
 />
    <glyph glyph-name="space" unicode=" " horiz-adv-x="388" 
 />
    <glyph glyph-name="space" unicode="&#xa0;" horiz-adv-x="388" 
 />
    <glyph glyph-name="FL0021h" unicode="!" horiz-adv-x="405" 
d="M33 613v-391h339v391h-339zM372 180h-339v-180h339v180z" />
    <glyph glyph-name="FL0022h" unicode="&#x22;" horiz-adv-x="639" 
d="M606 613h-264v-329h118l146 114v215zM297 613h-264v-329h118l146 114v215z" />
    <glyph glyph-name="FL0023h" unicode="#" horiz-adv-x="1027" 
d="M994 513v-180h-90v-56h90v-180h-90v-97h-340v97h-101v-97h-340v97h-90v180h90v56h-90v180h90v100h340v-100h101v100h340v-100h90zM463 333v-56h101v56h-101z" />
    <glyph glyph-name="FL0024h" unicode="$" 
d="M853 435h-475v-38h340q18 0 41 -12.5t44 -31.5t35.5 -40.5t14.5 -39.5v-108q0 -24 -13.5 -53t-33.5 -53.5t-43.5 -41.5t-43.5 -17h-128v-90h-297v90h-261v178h475v39h-340q-17 0 -40 11t-44 28t-36 39t-15 45v108q0 24 13.5 53t33.5 53.5t43.5 41.5t43.5 17h127v89h297
v-89h262v-178z" />
    <glyph glyph-name="FL0025h" unicode="%" horiz-adv-x="1148" 
d="M450 0l518 613h-269l-518 -613h269zM376 307q10 0 22 8.5t22 20.5t16.5 26.5t6.5 26.5v142q0 12 -6.5 26.5t-16.5 26.5t-22 20.5t-22 8.5h-276q-10 0 -21.5 -8.5t-21.5 -20.5t-17 -26.5t-7 -26.5v-142q0 -12 7 -26.5t17 -26.5t21.5 -20.5t21.5 -8.5h276zM260 410h-43v100
h43v-100zM1048 0q10 0 22 8.5t22 20.5t16.5 26.5t6.5 26.5v142q0 12 -6.5 26.5t-16.5 26.5t-22 20.5t-22 8.5h-276q-10 0 -21.5 -8.5t-21.5 -20.5t-17 -26.5t-7 -26.5v-142q0 -12 7 -26.5t17 -26.5t21.5 -20.5t21.5 -8.5h276zM932 103h-43v100h43v-100z" />
    <glyph glyph-name="FL0026h" unicode="&#x26;" horiz-adv-x="951" 
d="M378 392h540v-170h-77v-222h-674q-25 0 -49 15.5t-43 39.5t-30.5 51.5t-11.5 51.5v69q0 17 13.5 38t30.5 41q-8 6 -15.5 16t-14 21.5t-10.5 23t-4 19.5v69q0 24 12 51.5t31 51.5t43 39.5t48 15.5h540v-178h-329v-43zM378 222v-42h120v42h-120z" />
    <glyph glyph-name="FL0027h" unicode="'" horiz-adv-x="363" 
d="M330 613h-297v-329h151l146 114v215z" />
    <glyph glyph-name="FL0028h" unicode="(" horiz-adv-x="567" 
d="M534 514h-156v-412h156v-180h-367q-20 0 -43.5 17t-43.5 42t-33.5 53.5t-13.5 51.5v441q0 24 13.5 53t33.5 53.5t43.5 41.5t43.5 17h367v-178z" />
    <glyph glyph-name="FL0029h" unicode=")" horiz-adv-x="567" 
d="M32 514h156v-412h-156v-180h367q20 0 43.5 17t43.5 42t33.5 53.5t13.5 51.5v441q0 24 -13.5 53t-33.5 53.5t-43.5 41.5t-43.5 17h-367v-178z" />
    <glyph glyph-name="FL0F98h" unicode="*" horiz-adv-x="351" 
d="M204 446l94 64l-32 39l61 11l-47 95l-55 -24l4 51h-121l5 -51l-51 24l-38 -94l59 -11l-47 -43l99 -61l35 45z" />
    <glyph glyph-name="FL002Bh" unicode="+" horiz-adv-x="611" 
d="M395 559v-162h183v-180h-183v-163h-180v163h-182v180h182v162h180z" />
    <glyph glyph-name="FL002Ch" unicode="," horiz-adv-x="363" 
d="M330 215h-297v-329h151l146 114v215z" />
    <glyph glyph-name="FL002Dh" unicode="-" horiz-adv-x="515" 
d="M33 397v-180h449v180h-449z" />
    <glyph glyph-name="FL002Eh" unicode="." horiz-adv-x="363" 
d="M330 215h-297v-215h297v215z" />
    <glyph glyph-name="FL002Fh" unicode="/" horiz-adv-x="860" 
d="M370 0l470 613h-350l-470 -613h350z" />
    <glyph glyph-name="FL0030h" unicode="0" 
d="M719 0q20 0 43.5 17t43.5 41.5t33.5 53.5t13.5 53v283q0 24 -13.5 53t-33.5 53.5t-43.5 41.5t-43.5 17h-552q-20 0 -43.5 -17t-43.5 -41.5t-33.5 -53.5t-13.5 -53v-283q0 -24 13.5 -53t33.5 -53.5t43.5 -41.5t43.5 -17h552zM508 178h-130v257h130v-257z" />
    <glyph glyph-name="FL0031h" unicode="1" horiz-adv-x="534" 
d="M501 0v613h-468v-180h123v-433h345z" />
    <glyph glyph-name="FL0032h" unicode="2" horiz-adv-x="879" 
d="M32 613v-178h425l-425 -157v-278h813v178h-424l424 155v115q0 24 -13.5 53t-33.5 53.5t-43.5 41.5t-43.5 17h-679z" />
    <glyph glyph-name="FL0033h" unicode="3" horiz-adv-x="829" 
d="M451 222h-418v170h418v43h-418v178h629q24 0 48 -15.5t43 -39.5t31 -51.5t12 -51.5v-69q0 -9 -4 -20t-10.5 -22.5t-14.5 -21.5t-15 -16q17 -20 30.5 -41t13.5 -38v-69q0 -24 -11.5 -51.5t-30.5 -51.5t-43 -39.5t-49 -15.5h-629v180h418v42z" />
    <glyph glyph-name="FL0034h" unicode="4" 
d="M378 613h-345v-396h475v-217h345v613h-345v-216h-130v216z" />
    <glyph glyph-name="FL0035h" unicode="5" horiz-adv-x="879" 
d="M846 613v-178h-425l425 -157v-113q0 -24 -13.5 -53t-33.5 -53.5t-43.5 -41.5t-43.5 -17h-679v178h424l-424 155v280h813z" />
    <glyph glyph-name="FL0036h" unicode="6" 
d="M853 435v178h-686q-20 0 -43.5 -17t-43.5 -41.5t-33.5 -53.5t-13.5 -53v-283q0 -22 14.5 -50.5t35.5 -54t44 -43t40 -17.5h552q20 0 43.5 17t43.5 41.5t33.5 53.5t13.5 53v108q0 18 -14.5 39.5t-35.5 40.5t-44 31.5t-41 12.5h-340v38h475zM508 222v-42h-130v42h130z" />
    <glyph glyph-name="FL0037h" unicode="7" horiz-adv-x="780" 
d="M33 613v-178h374l-228 -435h329l239 449v164h-714z" />
    <glyph glyph-name="FL0038h" unicode="8" horiz-adv-x="887" 
d="M167 613h553q24 0 48 -15.5t43 -39.5t31 -51.5t12 -51.5v-69q0 -9 -4 -20t-10.5 -22.5t-14.5 -21.5t-15 -16q17 -20 30.5 -41t13.5 -38v-69q0 -24 -11.5 -51.5t-30.5 -51.5t-43 -39.5t-49 -15.5h-553q-25 0 -49 15.5t-43 39.5t-30.5 51.5t-11.5 51.5v69q0 17 13.5 38
t30.5 41q-8 6 -15.5 16t-14 21.5t-10.5 23t-4 19.5v69q0 24 12 51.5t31 51.5t43 39.5t48 15.5zM378 435v-43h131v43h-131zM509 222h-131v-42h131v42z" />
    <glyph glyph-name="FL0039h" unicode="9" 
d="M33 178v-178h686q20 0 43.5 17t43.5 41.5t33.5 53.5t13.5 53v283q0 22 -14.5 50.5t-35.5 54t-44 43t-40 17.5h-552q-20 0 -43.5 -17t-43.5 -41.5t-33.5 -53.5t-13.5 -53v-108q0 -18 14.5 -39.5t35.5 -40.5t44 -31.5t41 -12.5h340v-38h-475zM378 391v42h130v-42h-130z" />
    <glyph glyph-name="FL003Ah" unicode=":" horiz-adv-x="363" 
d="M330 215h-297v-215h297v215zM330 520h-297v-215h297v215z" />
    <glyph glyph-name="FL003Bh" unicode=";" horiz-adv-x="363" 
d="M330 520h-297v-215h297v215zM330 215h-297v-329h151l146 114v215z" />
    <glyph glyph-name="FL003Ch" unicode="&#x3c;" horiz-adv-x="630" 
d="M610 0l-230 306l230 307h-350l-240 -307l240 -306h350z" />
    <glyph glyph-name="FL003Dh" unicode="=" horiz-adv-x="586" 
d="M33 513h520v-180h-520v180zM33 277h520v-180h-520v180z" />
    <glyph glyph-name="FL003Eh" unicode="&#x3e;" horiz-adv-x="630" 
d="M370 0l240 306l-240 307h-350l230 -307l-230 -306h350z" />
    <glyph glyph-name="FL003Fh" unicode="?" 
d="M33 613v-178h475v-38h-259q-18 0 -41 -12.5t-44 -31.5t-35.5 -40.5t-14.5 -39.5v-56h604q16 0 39.5 11t44.5 28.5t36 39.5t15 44v108q0 24 -13.5 53t-33.5 53.5t-43.5 41.5t-43.5 17h-686zM450 180h-336v-180h336v180z" />
    <glyph glyph-name="FL0040h" unicode="@" horiz-adv-x="1182" 
d="M340 514v-412h713v-180h-886q-20 0 -43.5 17t-43.5 42t-33.5 53.5t-13.5 51.5v441q0 24 13.5 53t33.5 53.5t43.5 41.5t43.5 17h848q20 0 43.5 -17t43.5 -41.5t33.5 -53.5t13.5 -53v-208q0 -23 -13.5 -51.5t-33.5 -53.5t-43.5 -42t-43.5 -17h-562q-10 0 -21.5 8.5
t-21.5 20.5t-17 26.5t-7 26.5v142q0 12 7 26.5t17 26.5t21.5 20.5t21.5 8.5h276q10 0 22 -8.5t22 -20.5t16.5 -26.5t6.5 -26.5v-87h46v222h-502zM613 258v100h-43v-100h43z" />
    <glyph glyph-name="FL0041h" unicode="A" horiz-adv-x="910" 
d="M33 180l258 433h328l257 -433h1v-180h-844v180zM455 352l-104 -171h208z" />
    <glyph glyph-name="FL0042h" unicode="B" 
d="M508 435h-475v178h686q24 0 48 -15.5t43 -39.5t31 -51.5t12 -51.5v-69q0 -9 -4 -20t-10.5 -22.5t-14.5 -21.5t-15 -16q17 -20 30.5 -41t13.5 -38v-69q0 -24 -11.5 -51.5t-30.5 -51.5t-43 -39.5t-49 -15.5h-686v392h475v43zM508 222h-130v-42h130v42z" />
    <glyph glyph-name="FL0043h" unicode="C" 
d="M719 0h-552q-20 0 -43.5 17t-43.5 41.5t-33.5 53.5t-13.5 53v283q0 24 13.5 53t33.5 53.5t43.5 41.5t43.5 17h552q20 0 43.5 -17t43.5 -41.5t33.5 -53.5t13.5 -53v-68h-345v55h-130v-257h130v54h345v-67q0 -24 -13.5 -53t-33.5 -53.5t-43.5 -41.5t-43.5 -17z" />
    <glyph glyph-name="D" unicode="D" 
d="M33 0h686q20 0 43.5 17t43.5 41.5t33.5 53.5t13.5 53v283q0 24 -13.5 53t-33.5 53.5t-43.5 41.5t-43.5 17h-686v-178h475v-257h-130v219h-345v-397z" />
    <glyph glyph-name="E" unicode="E" horiz-adv-x="829" 
d="M796 613h-763v-613h763v180h-418v37h418v180h-418v38h418v178z" />
    <glyph glyph-name="F" unicode="F" horiz-adv-x="829" 
d="M796 613h-763v-613h345v212h418v180h-418v43h418v178z" />
    <glyph glyph-name="G" unicode="G" 
d="M853 0h-686q-20 0 -43.5 17t-43.5 41.5t-33.5 53.5t-13.5 53v283q0 24 13.5 53t33.5 53.5t43.5 41.5t43.5 17h686v-178h-475v-257h130v137h345v-315z" />
    <glyph glyph-name="H" unicode="H" 
d="M378 613h-345v-613h345v217h130v-217h345v613h-345v-216h-130v216z" />
    <glyph glyph-name="I" unicode="I" horiz-adv-x="411" 
d="M378 0v613h-345v-613h345zM33 651h345v180h-345v-180z" />
    <glyph glyph-name="J" unicode="J" horiz-adv-x="702" 
d="M324 180h-291v-180h502q20 0 43.5 17t43.5 42t33.5 53.5t13.5 51.5v449h-345v-433zM323 651h345v180h-345v-180z" />
    <glyph glyph-name="FL004Bh" unicode="K" horiz-adv-x="914" 
d="M894 0l-233 306l233 307h-352l-164 -210v210h-345v-613h345v209l164 -209h352z" />
    <glyph glyph-name="L" unicode="L" horiz-adv-x="702" 
d="M378 613h-345v-449q0 -23 13.5 -51.5t33.5 -53.5t43.5 -42t43.5 -17h502v180h-291v433z" />
    <glyph glyph-name="FL004Eh" unicode="M" horiz-adv-x="1114" 
d="M489 0l-111 195v-195h-345v613h375l149 -225l147 225h377v-613h-345v195l-112 -195h-135z" />
    <glyph glyph-name="N" unicode="N" 
d="M719 613q20 0 43.5 -17t43.5 -41.5t33.5 -53.5t13.5 -53v-448h-345v435h-130v-435h-345v613h686z" />
    <glyph glyph-name="O" unicode="O" 
d="M508 178v257h-475v13q0 24 13.5 53t33.5 53.5t43.5 41.5t43.5 17h552q20 0 43.5 -17t43.5 -41.5t33.5 -53.5t13.5 -53v-283q0 -24 -13.5 -53t-33.5 -53.5t-43.5 -41.5t-43.5 -17h-552q-20 0 -43.5 17t-43.5 41.5t-33.5 53.5t-13.5 53v231h345v-218h130z" />
    <glyph glyph-name="FL0050h" unicode="P" 
d="M378 0v185h341q20 0 43.5 17t43.5 41.5t33.5 53.5t13.5 53v98q0 24 -13.5 53t-33.5 53.5t-43.5 41.5t-43.5 17h-686v-613h345zM508 363h-130v72h130v-72z" />
    <glyph glyph-name="q" unicode="Q" horiz-adv-x="992" 
d="M959 0h-792q-20 0 -43.5 17t-43.5 41.5t-33.5 53.5t-13.5 53v283q0 24 13.5 53t33.5 53.5t43.5 41.5t43.5 17h552q20 0 43.5 -17t43.5 -41.5t33.5 -53.5t13.5 -53v-268h106v-180zM446 214h62v221h-130v-259z" />
    <glyph glyph-name="FL0052h" unicode="R" 
d="M882 0l-136 186q19 5 38.5 23t34.5 42t24.5 50.5t9.5 48.5v98q0 24 -13.5 53t-33.5 53.5t-43.5 41.5t-43.5 17h-686v-613h345v174l134 -174h370zM508 363h-130v72h130v-72z" />
    <glyph glyph-name="FL0053h" unicode="S" 
d="M853 613v-178h-475v-38h340q18 0 41 -12.5t44 -31.5t35.5 -40.5t14.5 -39.5v-108q0 -24 -13.5 -53t-33.5 -53.5t-43.5 -41.5t-43.5 -17h-686v178h475v39h-340q-17 0 -40 11t-44 28t-36 39t-15 45v108q0 24 13.5 53t33.5 53.5t43.5 41.5t43.5 17h686z" />
    <glyph glyph-name="T" unicode="T" 
d="M615 0v433h238v180h-820v-180h237v-433h345z" />
    <glyph glyph-name="U" unicode="U" 
d="M167 0q-20 0 -43.5 17t-43.5 41.5t-33.5 53.5t-13.5 53v448h345v-435h130v435h345v-613h-686z" />
    <glyph glyph-name="FL0056h" unicode="V" horiz-adv-x="903" 
d="M452 253l104 178v181h314v-180l-257 -433h-325l-255 433v180h315v-181z" />
    <glyph glyph-name="FL0057h" unicode="W" horiz-adv-x="1267" 
d="M801 180h88v433h345v-449q0 -23 -13.5 -51.5t-33.5 -53.5t-43.5 -42t-43.5 -17h-933q-20 0 -43.5 17t-43.5 42t-33.5 53.5t-13.5 51.5v449h345v-433h88v433h335v-433z" />
    <glyph glyph-name="X" unicode="X" horiz-adv-x="860" 
d="M840 0l-230 306l230 307h-350l-60 -79l-60 79h-350l230 -307l-230 -306h350l60 78l60 -78h350z" />
    <glyph glyph-name="FL0059h" unicode="Y" 
d="M378 613v-216h130v216h345v-448q0 -24 -13.5 -53t-33.5 -53.5t-43.5 -41.5t-43.5 -17h-686v178h475v39h-340q-17 0 -40 12t-44 30t-36 39.5t-15 41.5v273h345z" />
    <glyph glyph-name="FL007Bh" unicode="Z" horiz-adv-x="879" 
d="M32 613v-178h425l-425 -157v-278h813v178h-424l424 155v280h-813z" />
    <glyph glyph-name="FL005Bh" unicode="[" horiz-adv-x="567" 
d="M534 514h-156v-412h156v-180h-501v770h501v-178z" />
    <glyph glyph-name="FL005Ch" unicode="\" horiz-adv-x="860" 
d="M840 0l-470 613h-350l470 -613h350z" />
    <glyph glyph-name="FL005Dh" unicode="]" horiz-adv-x="567" 
d="M32 514h156v-412h-156v-180h501v770h-501v-178z" />
    <glyph glyph-name="FL005Eh" unicode="^" 
d="M508 0v185h-130v-185h-345v449q0 23 13.5 51.5t33.5 53.5t43.5 42t43.5 17h552q20 0 43.5 -17t43.5 -42t33.5 -53.5t13.5 -51.5v-449h-345zM508 363v70h-130v-70h130z" />
    <glyph glyph-name="FL005Fh" unicode="_" horiz-adv-x="746" 
d="M33 180h680v-180h-680v180z" />
    <glyph glyph-name="FL0060h" unicode="`" horiz-adv-x="376" 
d="M356 510l-87 172h-249l170 -172h166z" />
    <glyph glyph-name="FL0061h" unicode="a" horiz-adv-x="938" 
d="M918 0h-898l281 613h336zM538 181l-69 159l-69 -159h138z" />
    <glyph glyph-name="b" unicode="b" 
d="M33 0h686q25 0 49 15.5t43 39.5t30.5 51.5t11.5 51.5v69q0 17 -13.5 38t-30.5 41q7 6 15 16t14.5 21.5t10.5 22.5t4 20v69q0 24 -12 51.5t-31 51.5t-43 39.5t-48 15.5h-686v-613zM508 222v-42h-130v42h130zM508 435v-43h-130v43h130z" />
    <glyph glyph-name="c" unicode="c" horiz-adv-x="829" 
d="M796 435h-418v-255h418v-180h-629q-20 0 -43.5 17t-43.5 42t-33.5 53.5t-13.5 51.5v284q0 24 13.5 53t33.5 53.5t43.5 41.5t43.5 17h629v-178z" />
    <glyph glyph-name="d" unicode="d" 
d="M719 0q20 0 43.5 17t43.5 41.5t33.5 53.5t13.5 53v283q0 24 -13.5 53t-33.5 53.5t-43.5 41.5t-43.5 17h-686v-613h686zM508 178h-130v257h130v-257z" />
    <glyph glyph-name="e" unicode="e" horiz-adv-x="829" 
d="M796 613h-763v-613h763v180h-418v42h418v170h-418v43h418v178z" />
    <glyph glyph-name="f" unicode="f" horiz-adv-x="829" 
d="M796 613h-763v-613h345v212h418v180h-418v43h418v178z" />
    <glyph glyph-name="g" unicode="g" 
d="M853 0h-686q-20 0 -43.5 17t-43.5 41.5t-33.5 53.5t-13.5 53v283q0 24 13.5 53t33.5 53.5t43.5 41.5t43.5 17h629v-178h-418v-257h130v137h345v-315z" />
    <glyph glyph-name="h" unicode="h" 
d="M378 613h-345v-613h345v217h130v-217h345v613h-345v-216h-130v216z" />
    <glyph glyph-name="i" unicode="i" horiz-adv-x="411" 
d="M378 0v613h-345v-613h345z" />
    <glyph glyph-name="j" unicode="j" horiz-adv-x="702" 
d="M324 613h345v-449q0 -23 -13.5 -51.5t-33.5 -53.5t-43.5 -42t-43.5 -17h-502v180h291v433z" />
    <glyph glyph-name="k" unicode="k" horiz-adv-x="914" 
d="M894 0l-233 306l233 307h-352l-164 -210v210h-345v-613h345v209l164 -209h352z" />
    <glyph glyph-name="l" unicode="l" horiz-adv-x="702" 
d="M378 613h-345v-613h636v180h-291v433z" />
    <glyph glyph-name="FL006Dh" unicode="m" horiz-adv-x="1114" 
d="M489 0l-111 195v-195h-345v613h375l149 -225l147 225h377v-613h-345v195l-112 -195h-135z" />
    <glyph glyph-name="FL006Eh" unicode="n" 
d="M508 0l-130 204v-204h-345v613h345l130 -221v221h345v-613h-345z" />
    <glyph glyph-name="o" unicode="o" 
d="M719 0q20 0 43.5 17t43.5 41.5t33.5 53.5t13.5 53v283q0 24 -13.5 53t-33.5 53.5t-43.5 41.5t-43.5 17h-552q-20 0 -43.5 -17t-43.5 -41.5t-33.5 -53.5t-13.5 -53v-283q0 -24 13.5 -53t33.5 -53.5t43.5 -41.5t43.5 -17h552zM508 178h-130v257h130v-257z" />
    <glyph glyph-name="p" unicode="p" 
d="M378 0v185h341q20 0 43.5 17t43.5 41.5t33.5 53.5t13.5 53v98q0 24 -13.5 53t-33.5 53.5t-43.5 41.5t-43.5 17h-686v-613h345zM508 363h-130v72h130v-72z" />
    <glyph glyph-name="FL0051h" unicode="q" 
d="M778 -76h-350l-70 76h-191q-20 0 -43.5 17t-43.5 41.5t-33.5 53.5t-13.5 53v283q0 24 13.5 53t33.5 53.5t43.5 41.5t43.5 17h552q20 0 43.5 -17t43.5 -41.5t33.5 -53.5t13.5 -53v-283q0 -24 -13.5 -53t-33.5 -53.5t-43.5 -41.5t-43.5 -17h-2zM508 214v221h-130v-259
l68 38h62z" />
    <glyph glyph-name="r" unicode="r" 
d="M882 0l-136 186q19 5 38.5 23t34.5 42t24.5 50.5t9.5 48.5v98q0 24 -13.5 53t-33.5 53.5t-43.5 41.5t-43.5 17h-686v-613h345v174l134 -174h370zM508 363h-130v72h130v-72z" />
    <glyph glyph-name="FL0073h" unicode="s" horiz-adv-x="879" 
d="M846 613v-178h-425l425 -157v-113q0 -24 -13.5 -53t-33.5 -53.5t-43.5 -41.5t-43.5 -17h-679v178h424l-424 155v115q0 24 13.5 53t33.5 53.5t43.5 41.5t43.5 17h679z" />
    <glyph glyph-name="t" unicode="t" 
d="M615 0v433h238v180h-820v-180h237v-433h345z" />
    <glyph glyph-name="u" unicode="u" 
d="M378 180v433h-345v-449q0 -23 13.5 -51.5t33.5 -53.5t43.5 -42t43.5 -17h552q20 0 43.5 17t43.5 42t33.5 53.5t13.5 51.5v449h-345v-433h-130z" />
    <glyph glyph-name="v" unicode="v" horiz-adv-x="864" 
d="M263 0l-243 613h331l81 -262l81 262h331l-243 -613h-338z" />
    <glyph glyph-name="FL00BAh" unicode="w" horiz-adv-x="1271" 
d="M1056 0h-338l-83 197l-82 -197h-338l-195 613h332l62 -260l98 260h247l98 -260l62 260h332z" />
    <glyph glyph-name="x" unicode="x" 
d="M20 0h355l68 91l68 -91h355l-233 306l233 307h-355l-68 -92l-68 92h-355l233 -307z" />
    <glyph glyph-name="y" unicode="y" horiz-adv-x="860" 
d="M602 0v223l238 390h-342l-68 -133l-68 133h-342l237 -389v-224h345z" />
    <glyph glyph-name="FL005Ah" unicode="z" horiz-adv-x="831" 
d="M33 613v-178h378l-378 -173v-262h765v178h-377l377 171v264h-765z" />
    <glyph glyph-name="FL007Dh" unicode="{" horiz-adv-x="698" 
d="M33 397h131v130q0 24 13.5 53t33.5 53.5t43.5 41.5t43.5 17h367v-178h-156v-412h156v-180h-367q-20 0 -43.5 17t-43.5 42t-33.5 53.5t-13.5 51.5v131h-131v180z" />
    <glyph glyph-name="FL007Ch" unicode="|" horiz-adv-x="406" 
d="M33 -208v1029h340v-1029h-340z" />
    <glyph glyph-name="FL007Eh" unicode="}" horiz-adv-x="698" 
d="M665 397h-131v130q0 24 -13.5 53t-33.5 53.5t-43.5 41.5t-43.5 17h-367v-178h156v-412h-156v-180h367q20 0 43.5 17t43.5 42t33.5 53.5t13.5 51.5v131h131v180z" />
    <glyph glyph-name="FL0080h" unicode="~" horiz-adv-x="687" 
d="M348 396l56 -73l56 74h207l-119 -181h-213l-59 72l-52 -72h-204l123 180h205z" />
    <glyph glyph-name="FL007Fh" horiz-adv-x="266" 
 />
    <glyph glyph-name="FL00A1h" unicode="&#xa1;" horiz-adv-x="405" 
d="M33 0v391h339v-391h-339zM372 433h-339v180h339v-180z" />
    <glyph glyph-name="FL00A2h" unicode="&#xa2;" 
d="M591 702v-89h128q20 0 43.5 -17t43.5 -41.5t33.5 -53.5t13.5 -53v-68h-345v55h-130v-257h130v54h345v-67q0 -24 -13.5 -53t-33.5 -53.5t-43.5 -41.5t-43.5 -17h-128v-90h-297v90h-127q-20 0 -43.5 17t-43.5 41.5t-33.5 53.5t-13.5 53v283q0 24 13.5 53t33.5 53.5
t43.5 41.5t43.5 17h127v89h297z" />
    <glyph glyph-name="FL00A3h" unicode="&#xa3;" horiz-adv-x="905" 
d="M33 392h76v63q0 24 12 51.5t31 51.5t43 39.5t48 15.5h303v-178h-92v-43h249v-170h-249v-42h418v-180h-839v180h76v42h-76v170z" />
    <glyph glyph-name="FL00A4h" unicode="&#xa4;" 
d="M163 188l-143 -188h355l68 91l68 -91h355l-145 189q5 18 5 24v187q0 5 -5 23l145 190h-355l-68 -92l-68 92h-355l143 -189q-3 -6 -4 -12.5t-1 -11.5v-187q0 -6 1 -12.5t4 -12.5zM472 241h-59v131h59v-131z" />
    <glyph glyph-name="FL00A5h" unicode="&#xa5;" horiz-adv-x="860" 
d="M167 267h64l-211 346h342l68 -133l68 133h342l-211 -346h63v-180h-90v-42h90v-180h-90v-45h-345v45h-90v180h90v42h-90v180z" />
    <glyph glyph-name="FL00A6h" unicode="&#xa6;" horiz-adv-x="411" 
d="M378 324h-345v497h345v-497zM33 -208v484h345v-484h-345z" />
    <glyph glyph-name="FL00A7h" unicode="&#xa7;" 
d="M853 653v-178h-475v-38h340q18 0 41 -12.5t44 -31.5t35.5 -40.5t14.5 -39.5v-108q0 -14 -5.5 -30.5t-13.5 -33.5q8 -12 13.5 -23.5t5.5 -22.5v-108q0 -24 -13.5 -53t-33.5 -53.5t-43.5 -41.5t-43.5 -17h-686v178h475v39h-340q-17 0 -40 11t-44 28t-36 39t-15 45v108
q0 29 17 61q-17 23 -17 49v108q0 24 13.5 53t33.5 53.5t43.5 41.5t43.5 17h686zM378 257v-38h130v38h-130z" />
    <glyph glyph-name="FL00A8h" unicode="&#xa8;" horiz-adv-x="732" 
d="M33 510v172h293v-172h-293zM699 682v-172h-293v172h293z" />
    <glyph glyph-name="FL00A9h" unicode="&#xa9;" horiz-adv-x="229" 
d="M115 657q-11 0 -21 -3t-24 -8q-46 -28 -46 -79q0 -24 12 -45q8 -11 15 -18t18 -15q22 -12 46 -12l11.5 2t31.5 10l4 3q10 7 17 13t12 17q14 26 14 45q0 21 -14 44q-7 19 -34 35q-20 11 -42 11zM115 643h3q13 0 26 -6.5t23 -16.5t16.5 -23t6.5 -26v-4q0 -17 -11 -36
t-27 -29q-19 -10 -34 -10q-5 0 -16 1.5t-26 8.5q-20 14 -27 29q-10 16 -10 36q0 19 10 38q23 38 66 38zM143 553q-6 -22 -29 -22q-31 0 -31 36q0 38 32 38q18 0 26 -18l14 3q-7 28 -40 28q-48 0 -48 -51q0 -52 48 -52q35 0 42 34z" />
    <glyph glyph-name="FL00AAh" unicode="&#xaa;" horiz-adv-x="864" 
d="M601 613l243 -613h-331l-81 262l-81 -262h-331l243 613h338z" />
    <glyph glyph-name="FL00ABh" unicode="&#xab;" horiz-adv-x="1128" 
d="M1108 0l-230 306l230 307h-350l-240 -307l240 -306h350zM610 0l-230 306l230 307h-350l-240 -307l240 -306h350z" />
    <glyph glyph-name="FL00ADh" unicode="&#xac;" horiz-adv-x="611" 
d="M33 397h545v-343h-180v163h-365v180z" />
    <glyph glyph-name="FL00AEh" unicode="&#xad;" horiz-adv-x="425" 
d="M33 397v-180h359v180h-359z" />
    <glyph glyph-name="registered" unicode="&#xae;" horiz-adv-x="229" 
d="M115 657q-24 0 -45 -12q-22 -12 -34 -34l-1 -2q-5 -11 -8 -19.5t-3 -22.5q0 -26 12 -45q15 -21 33 -33q19 -12 46 -12l12.5 1.5t30.5 10.5q25 13 33 33q14 26 14 45q0 22 -13 44.5t-35 33.5q-18 12 -42 12zM115 642h3q13 0 26 -6t23 -16t16 -23t6 -26l1 -4l-2.5 -11.5
t-8.5 -25.5q-10 -16 -27 -28q-10 -5 -19 -7t-18 -2h-1q-3 0 -13 1.5t-25 7.5q-20 15 -27 28q-5 17 -7.5 27l-2.5 10q0 18 11 38q22 37 65 37zM76 517h15v41h9q8 0 12 -4q3 -1 17 -21l7 -16h20l-12 19q-8 11 -11.5 16t-11.5 9q29 2 29 27q0 7 -6 15q-2 2 -4.5 3.5t-6.5 3.5
q-4 4 -25 4h-32v-97zM91 571v30h17q15 0 16 -1q9 -5 9 -13t-5 -12t-19 -4h-18z" />
    <glyph glyph-name="FL00AFh" unicode="&#xaf;" horiz-adv-x="746" 
d="M33 613h680v-180h-680v180z" />
    <glyph glyph-name="FL00B0h" unicode="&#xb0;" horiz-adv-x="359" 
d="M33 683v-172h293v172h-293zM208 618v-42h-57v42h57z" />
    <glyph glyph-name="FL00B1h" unicode="&#xb1;" horiz-adv-x="611" 
d="M395 613v-113h183v-180h-183v-113h-180v113h-182v180h182v113h180zM33 180h545v-180h-545v180z" />
    <glyph glyph-name="FL00B2h" unicode="&#xb2;" horiz-adv-x="472" 
d="M33 682v-102h194l-194 -65v-139h406v104h-174l174 62v58q0 12 -6.5 26.5t-16.5 26.5t-22 20.5t-22 8.5h-339z" />
    <glyph glyph-name="FL00B3h" unicode="&#xb3;" horiz-adv-x="448" 
d="M232 486h-199v87h199v18h-199v91h315q12 0 24 -8t21.5 -19.5t15.5 -25.5t6 -26v-34q0 -9 -7 -21.5t-15 -18.5q8 -11 15 -21t7 -19v-34q0 -12 -6 -26t-15.5 -25.5t-21.5 -19.5t-24 -8h-315v92h199v18z" />
    <glyph glyph-name="FL00B4h" unicode="&#xb4;" horiz-adv-x="376" 
d="M20 510l87 172h249l-170 -172h-166z" />
    <glyph glyph-name="FL0058h" unicode="&#xb5;" horiz-adv-x="1378" 
d="M926 261l104 171v181h315v-180l-258 -433h-306l-92 166l-92 -167h-306l-258 433v180h315v-181l104 -171l97 171v182h280v-181z" />
    <glyph glyph-name="FL0077h" unicode="&#xb6;" horiz-adv-x="1338" 
d="M734 0l-65 190l-65 -190h-328l-243 613h332l80 -262l80 262h288l80 -262l80 262h332l-243 -613h-328z" />
    <glyph glyph-name="FL00B7h" unicode="&#xb7;" horiz-adv-x="363" 
d="M330 413h-297v-215h297v215z" />
    <glyph glyph-name="FL00B8h" unicode="&#xb8;" horiz-adv-x="208" 
d="M34 2h141v-172h-243v128h102v44z" />
    <glyph glyph-name="FL00B9h" unicode="&#xb9;" horiz-adv-x="291" 
d="M75 377v203h-42v103h225v-306h-183z" />
    <glyph glyph-name="FL00BCh" unicode="&#xba;" horiz-adv-x="476" 
d="M376 377q10 0 22 8.5t22 20.5t16.5 26.5t6.5 26.5v142q0 12 -6.5 26.5t-16.5 26.5t-22 20.5t-22 8.5h-276q-10 0 -21.5 -8.5t-21.5 -20.5t-17 -26.5t-7 -26.5v-142q0 -12 7 -26.5t17 -26.5t21.5 -20.5t21.5 -8.5h276zM260 480h-43v100h43v-100z" />
    <glyph glyph-name="FL00BBh" unicode="&#xbb;" horiz-adv-x="1128" 
d="M20 0l230 306l-230 307h350l240 -307l-240 -306h-350zM518 0l230 306l-230 307h350l240 -307l-240 -306h-350z" />
    <glyph glyph-name="FL00BEh" unicode="&#xbc;" horiz-adv-x="1040" 
d="M75 510v-203h183v306h-225v-103h42zM304 0l518 613h-269l-518 -613h269zM781 306h-184v-198h227v-108h183v306h-183v-108h-43v108z" />
    <glyph glyph-name="FL00BDh" unicode="&#xbd;" horiz-adv-x="1036" 
d="M597 204v102h339q10 0 22 -8.5t22 -20.5t16.5 -26.5t6.5 -26.5v-58l-174 -62h174v-104h-406v139l194 65h-194zM825 613l-518 -613h-269l518 613h269zM75 307v203h-42v103h225v-306h-183z" />
    <glyph glyph-name="FL0F17h" unicode="&#xbe;" horiz-adv-x="1157" 
d="M714 306h184v-108h43v108h183v-306h-183v108h-227v198zM939 613l-518 -613h-269l518 613h269zM232 417h-199v87h199v18h-199v91h315q12 0 24 -8t21.5 -19.5t15.5 -25.5t6 -26v-34q0 -9 -7 -21.5t-15 -18.5q8 -11 15 -21t7 -19v-34q0 -12 -6 -26t-15.5 -25.5t-21.5 -19.5
t-24 -8h-315v92h199v18z" />
    <glyph glyph-name="FL00BFh" unicode="&#xbf;" 
d="M853 0v178h-475v38h259q18 0 41 12.5t44 31.5t35.5 40.5t14.5 39.5v56h-604q-17 0 -40 -11t-44 -28.5t-36 -39.5t-15 -44v-108q0 -24 13.5 -53t33.5 -53.5t43.5 -41.5t43.5 -17h686zM433 433h339v180h-339v-180z" />
    <glyph glyph-name="FL00C0h" unicode="&#xc0;" horiz-adv-x="910" 
d="M33 180l258 433h328l257 -433h1v-180h-844v180zM455 352l-104 -171h208zM502 840l87 -172h-166l-170 172h249z" />
    <glyph glyph-name="FL00C1h" unicode="&#xc1;" horiz-adv-x="910" 
d="M33 180l258 433h328l257 -433h1v-180h-844v180zM455 352l-104 -171h208zM321 668l87 172h249l-170 -172h-166z" />
    <glyph glyph-name="FL00C2h" unicode="&#xc2;" horiz-adv-x="910" 
d="M292 840h327l151 -172h-258l-55 71l-55 -71h-263zM33 180l258 433h328l257 -433h1v-180h-844v180zM455 352l-104 -171h208z" />
    <glyph glyph-name="FL00C3h" unicode="&#xc3;" horiz-adv-x="910" 
d="M460 840l55 -70l55 71h203l-117 -173h-209l-58 69l-52 -69h-200l121 172h202zM33 180l258 433h328l257 -433h1v-180h-844v180zM455 352l-104 -171h208z" />
    <glyph glyph-name="FL00C4h" unicode="&#xc4;" horiz-adv-x="910" 
d="M122 668v172h293v-172h-293zM788 840v-172h-293v172h293zM33 180l258 433h328l257 -433h1v-180h-844v180zM455 352l-104 -171h208z" />
    <glyph glyph-name="FL00C5h" unicode="&#xc5;" horiz-adv-x="910" 
d="M308 840v-172h293v172h-293zM483 775v-42h-57v42h57zM351 181l104 171l104 -171h-208zM291 613l-258 -433v-180h844v180h-1l-257 433h-328z" />
    <glyph glyph-name="FL00C6h" unicode="&#xc6;" horiz-adv-x="1549" 
d="M33 180l258 433h328l134 -226v226h763v-178h-418v-38h418v-180h-418v-37h418v-180h-1483v180zM455 352l-104 -171h208z" />
    <glyph glyph-name="FL00C7h" unicode="&#xc7;" 
d="M719 0h-192v-170h-243v128h102v42h-219q-20 0 -43.5 17t-43.5 41.5t-33.5 53.5t-13.5 53v283q0 24 13.5 53t33.5 53.5t43.5 41.5t43.5 17h552q20 0 43.5 -17t43.5 -41.5t33.5 -53.5t13.5 -53v-68h-345v55h-130v-257h130v54h345v-67q0 -24 -13.5 -53t-33.5 -53.5
t-43.5 -41.5t-43.5 -17z" />
    <glyph glyph-name="FL00C8h" unicode="&#xc8;" horiz-adv-x="829" 
d="M33 613h763v-178h-418v-43h418v-170h-418v-42h418v-180h-763v613zM465 840l87 -172h-166l-170 172h249z" />
    <glyph glyph-name="FL00C9h" unicode="&#xc9;" horiz-adv-x="829" 
d="M33 613h763v-178h-418v-43h418v-170h-418v-42h418v-180h-763v613zM276 668l87 172h249l-170 -172h-166z" />
    <glyph glyph-name="FL00CAh" unicode="&#xca;" horiz-adv-x="829" 
d="M252 840h327l151 -172h-258l-55 71l-55 -71h-263zM33 613h763v-178h-418v-38h418v-180h-418v-37h418v-180h-763v613z" />
    <glyph glyph-name="FL00CBh" unicode="&#xcb;" horiz-adv-x="829" 
d="M81 668v172h293v-172h-293zM747 840v-172h-293v172h293zM33 613h763v-178h-418v-43h418v-170h-418v-42h418v-180h-763v613z" />
    <glyph glyph-name="FL00CCh" unicode="&#xcc;" horiz-adv-x="411" 
d="M373 668l-87 172h-249l170 -172h166zM32 613v-613h345v613h-345z" />
    <glyph glyph-name="FL00CDh" unicode="&#xcd;" horiz-adv-x="411" 
d="M37 668l87 172h249l-170 -172h-166zM378 613v-613h-345v613h345z" />
    <glyph glyph-name="FL00CEh" unicode="&#xce;" horiz-adv-x="411" 
d="M43 840h327l151 -172h-258l-55 71l-55 -71h-263zM378 613v-613h-345v613h345z" />
    <glyph glyph-name="FL00CFh" unicode="&#xcf;" horiz-adv-x="411" 
d="M-127 668v172h293v-172h-293zM539 840v-172h-293v172h293zM378 613v-613h-345v613h345z" />
    <glyph glyph-name="FL00D0h" unicode="&#xd0;" horiz-adv-x="941" 
d="M33 397h55v216h686q20 0 43.5 -17t43.5 -41.5t33.5 -53.5t13.5 -53v-283q0 -24 -13.5 -53t-33.5 -53.5t-43.5 -41.5t-43.5 -17h-686v217h-55v180zM563 178v257h-130v-38h59v-180h-59v-39h130z" />
    <glyph glyph-name="FL00D1h" unicode="&#xd1;" 
d="M719 613q20 0 43.5 -17t43.5 -41.5t33.5 -53.5t13.5 -53v-448h-345v435h-130v-435h-345v613h686zM412 840l55 -70l55 71h203l-117 -173h-209l-58 69l-52 -69h-200l121 172h202z" />
    <glyph glyph-name="FL00D2h" unicode="&#xd2;" 
d="M488 840l87 -172h-166l-170 172h249zM508 178v257h-475v13q0 24 13.5 53t33.5 53.5t43.5 41.5t43.5 17h552q20 0 43.5 -17t43.5 -41.5t33.5 -53.5t13.5 -53v-283q0 -24 -13.5 -53t-33.5 -53.5t-43.5 -41.5t-43.5 -17h-552q-20 0 -43.5 17t-43.5 41.5t-33.5 53.5t-13.5 53
v231h345v-218h130z" />
    <glyph glyph-name="FL00D3h" unicode="&#xd3;" 
d="M311 668l87 172h249l-170 -172h-166zM508 178v257h-475v13q0 24 13.5 53t33.5 53.5t43.5 41.5t43.5 17h552q20 0 43.5 -17t43.5 -41.5t33.5 -53.5t13.5 -53v-283q0 -24 -13.5 -53t-33.5 -53.5t-43.5 -41.5t-43.5 -17h-552q-20 0 -43.5 17t-43.5 41.5t-33.5 53.5t-13.5 53
v231h345v-218h130z" />
    <glyph glyph-name="FL00D4h" unicode="&#xd4;" 
d="M280 840h327l151 -172h-258l-55 71l-55 -71h-263zM508 178v257h-475v13q0 24 13.5 53t33.5 53.5t43.5 41.5t43.5 17h552q20 0 43.5 -17t43.5 -41.5t33.5 -53.5t13.5 -53v-283q0 -24 -13.5 -53t-33.5 -53.5t-43.5 -41.5t-43.5 -17h-552q-20 0 -43.5 17t-43.5 41.5
t-33.5 53.5t-13.5 53v231h345v-218h130z" />
    <glyph glyph-name="FL00D5h" unicode="&#xd5;" 
d="M448 840l55 -70l55 71h203l-117 -173h-209l-58 69l-52 -69h-200l121 172h202zM508 178v257h-475v13q0 24 13.5 53t33.5 53.5t43.5 41.5t43.5 17h552q20 0 43.5 -17t43.5 -41.5t33.5 -53.5t13.5 -53v-283q0 -24 -13.5 -53t-33.5 -53.5t-43.5 -41.5t-43.5 -17h-552
q-20 0 -43.5 17t-43.5 41.5t-33.5 53.5t-13.5 53v231h345v-218h130z" />
    <glyph glyph-name="FL00D6h" unicode="&#xd6;" 
d="M110 668v172h293v-172h-293zM776 840v-172h-293v172h293zM508 178v257h-475v13q0 24 13.5 53t33.5 53.5t43.5 41.5t43.5 17h552q20 0 43.5 -17t43.5 -41.5t33.5 -53.5t13.5 -53v-283q0 -24 -13.5 -53t-33.5 -53.5t-43.5 -41.5t-43.5 -17h-552q-20 0 -43.5 17t-43.5 41.5
t-33.5 53.5t-13.5 53v231h345v-218h130z" />
    <glyph glyph-name="FL00D7h" unicode="&#xd7;" horiz-adv-x="525" 
d="M505 421l-115 -114l115 -116l-127 -127l-115 115l-116 -115l-127 127l115 116l-114 114l127 128l115 -115l114 115z" />
    <glyph glyph-name="FL00D8h" unicode="&#xd8;" 
d="M719 0h-552q-20 0 -43.5 17t-43.5 41.5t-33.5 53.5t-13.5 53v283q0 24 13.5 53t33.5 53.5t43.5 41.5t43.5 17h552q20 0 43.5 -17t43.5 -41.5t33.5 -53.5t13.5 -53v-283q0 -24 -13.5 -53t-33.5 -53.5t-43.5 -41.5t-43.5 -17zM360 435v-134l97 134h-97zM526 178v134
l-97 -134h97z" />
    <glyph glyph-name="FL00D9h" unicode="&#xd9;" 
d="M488 840l87 -172h-166l-170 172h249zM167 0q-20 0 -43.5 17t-43.5 41.5t-33.5 53.5t-13.5 53v448h345v-435h130v435h345v-613h-686z" />
    <glyph glyph-name="FL00DAh" unicode="&#xda;" 
d="M311 668l87 172h249l-170 -172h-166zM167 0q-20 0 -43.5 17t-43.5 41.5t-33.5 53.5t-13.5 53v448h345v-435h130v435h345v-613h-686z" />
    <glyph glyph-name="FL00DBh" unicode="&#xdb;" 
d="M280 840h327l151 -172h-258l-55 71l-55 -71h-263zM167 0q-20 0 -43.5 17t-43.5 41.5t-33.5 53.5t-13.5 53v448h345v-435h130v435h345v-613h-686z" />
    <glyph glyph-name="FL00DCh" unicode="&#xdc;" 
d="M110 668v172h293v-172h-293zM776 840v-172h-293v172h293zM167 0q-20 0 -43.5 17t-43.5 41.5t-33.5 53.5t-13.5 53v448h345v-435h130v435h345v-613h-686z" />
    <glyph glyph-name="FL00DDh" unicode="&#xdd;" 
d="M378 397v216h-345v-273q0 -20 15 -41.5t36 -39.5t44 -30t40 -12h340v-39h-475v-178h686q20 0 43.5 17t43.5 41.5t33.5 53.5t13.5 53v448h-345v-216h-130zM398 840l-87 -172h166l170 172h-249z" />
    <glyph glyph-name="FL00DFh" unicode="&#xde;" 
d="M378 0h-345v613h345v-93h341q20 0 43.5 -17t43.5 -41.5t33.5 -53.5t13.5 -53v-97q0 -24 -13.5 -53t-33.5 -53.5t-43.5 -41.5t-43.5 -17h-341v-93zM508 271v71h-130v-71h130z" />
    <glyph glyph-name="FL00DEh" unicode="&#xdf;" horiz-adv-x="885" 
d="M378 -171h-345v620q0 23 13.5 51.5t33.5 53.5t43.5 42t43.5 17h551q24 0 48 -15.5t43 -39.5t31 -51.5t12 -51.5v-69q0 -9 -4 -20t-10.5 -22.5t-14.5 -21.5t-15 -16q17 -20 30.5 -41t13.5 -38v-69q0 -24 -11.5 -51.5t-30.5 -51.5t-43 -39.5t-49 -15.5h-300v180h89v42h-89
v170h89v43h-129v-606z" />
    <glyph glyph-name="FL00E0h" unicode="&#xe0;" horiz-adv-x="938" 
d="M918 0h-898l281 613h336zM538 181l-69 159l-69 -159h138zM530 840l87 -172h-166l-170 172h249z" />
    <glyph glyph-name="FL00E1h" unicode="&#xe1;" horiz-adv-x="938" 
d="M918 0h-898l281 613h336zM538 181l-69 159l-69 -159h138zM321 668l87 172h249l-170 -172h-166z" />
    <glyph glyph-name="FL00E2h" unicode="&#xe2;" horiz-adv-x="938" 
d="M306 840h327l151 -172h-258l-55 71l-55 -71h-263zM918 0h-898l281 613h336zM538 181l-69 159l-69 -159h138z" />
    <glyph glyph-name="FL00E3h" unicode="&#xe3;" horiz-adv-x="938" 
d="M474 840l55 -70l55 71h203l-117 -173h-209l-58 69l-52 -69h-200l121 172h202zM918 0h-898l281 613h336zM538 181l-69 159l-69 -159h138z" />
    <glyph glyph-name="FL00E4h" unicode="&#xe4;" horiz-adv-x="938" 
d="M136 668v172h293v-172h-293zM802 840v-172h-293v172h293zM918 0h-898l281 613h336zM538 181l-69 159l-69 -159h138z" />
    <glyph glyph-name="FL00E5h" unicode="&#xe5;" horiz-adv-x="938" 
d="M322 840v-172h293v172h-293zM497 775v-42h-57v42h57zM469 340l69 -159h-138zM20 0h898l-281 613h-336z" />
    <glyph glyph-name="FL00E6h" unicode="&#xe6;" horiz-adv-x="1573" 
d="M777 613h763v-178h-418v-43h418v-170h-418v-42h418v-180h-1520l281 613h336l140 -306v306zM538 181l-69 159l-69 -159h138z" />
    <glyph glyph-name="FL00E7h" unicode="&#xe7;" horiz-adv-x="829" 
d="M796 435h-418v-255h418v-180h-237v-170h-243v128h102v42h-251q-20 0 -43.5 17t-43.5 42t-33.5 53.5t-13.5 51.5v284q0 24 13.5 53t33.5 53.5t43.5 41.5t43.5 17h629v-178z" />
    <glyph glyph-name="FL00E8h" unicode="&#xe8;" horiz-adv-x="829" 
d="M33 613h763v-178h-418v-43h418v-170h-418v-42h418v-180h-763v613zM465 840l87 -172h-166l-170 172h249z" />
    <glyph glyph-name="FL00E9h" unicode="&#xe9;" horiz-adv-x="829" 
d="M33 613h763v-178h-418v-43h418v-170h-418v-42h418v-180h-763v613zM276 668l87 172h249l-170 -172h-166z" />
    <glyph glyph-name="FL00EAh" unicode="&#xea;" horiz-adv-x="829" 
d="M252 840h327l151 -172h-258l-55 71l-55 -71h-263zM33 613h763v-178h-418v-38h418v-180h-418v-37h418v-180h-763v613z" />
    <glyph glyph-name="FL00EBh" unicode="&#xeb;" horiz-adv-x="829" 
d="M81 668v172h293v-172h-293zM747 840v-172h-293v172h293zM33 613h763v-178h-418v-43h418v-170h-418v-42h418v-180h-763v613z" />
    <glyph glyph-name="FL00ECh" unicode="&#xec;" horiz-adv-x="411" 
d="M373 668l-87 172h-249l170 -172h166zM32 613v-613h345v613h-345z" />
    <glyph glyph-name="FL00EDh" unicode="&#xed;" horiz-adv-x="411" 
d="M37 668l87 172h249l-170 -172h-166zM378 613v-613h-345v613h345z" />
    <glyph glyph-name="FL00EEh" unicode="&#xee;" horiz-adv-x="411" 
d="M43 840h327l151 -172h-258l-55 71l-55 -71h-263zM378 613v-613h-345v613h345z" />
    <glyph glyph-name="FL00EFh" unicode="&#xef;" horiz-adv-x="411" 
d="M-127 668v172h293v-172h-293zM539 840v-172h-293v172h293zM378 613v-613h-345v613h345z" />
    <glyph glyph-name="FL00F0h" unicode="&#xf0;" 
d="M33 435v178h686q20 0 43.5 -17t43.5 -41.5t33.5 -53.5t13.5 -53v-283q0 -22 -14.5 -50.5t-35.5 -54t-44 -43t-40 -17.5h-552q-20 0 -43.5 17t-43.5 41.5t-33.5 53.5t-13.5 53v108q0 18 14.5 39.5t35.5 40.5t44 31.5t41 12.5h340v38h-475zM378 222v-42h130v42h-130z" />
    <glyph glyph-name="FL00F1h" unicode="&#xf1;" 
d="M448 840l55 -70l55 71h203l-117 -173h-209l-58 69l-52 -69h-200l121 172h202zM508 0l-130 204v-204h-345v613h345l130 -221v221h345v-613h-345z" />
    <glyph glyph-name="FL00F2h" unicode="&#xf2;" 
d="M378 178h130v257h-130v-257zM719 0h-552q-20 0 -43.5 17t-43.5 41.5t-33.5 53.5t-13.5 53v283q0 24 13.5 53t33.5 53.5t43.5 41.5t43.5 17h552q20 0 43.5 -17t43.5 -41.5t33.5 -53.5t13.5 -53v-283q0 -24 -13.5 -53t-33.5 -53.5t-43.5 -41.5t-43.5 -17zM488 840l87 -172
h-166l-170 172h249z" />
    <glyph glyph-name="FL00F3h" unicode="&#xf3;" 
d="M378 178h130v257h-130v-257zM719 0h-552q-20 0 -43.5 17t-43.5 41.5t-33.5 53.5t-13.5 53v283q0 24 13.5 53t33.5 53.5t43.5 41.5t43.5 17h552q20 0 43.5 -17t43.5 -41.5t33.5 -53.5t13.5 -53v-283q0 -24 -13.5 -53t-33.5 -53.5t-43.5 -41.5t-43.5 -17zM311 668l87 172
h249l-170 -172h-166z" />
    <glyph glyph-name="FL00F4h" unicode="&#xf4;" 
d="M280 840h327l151 -172h-258l-55 71l-55 -71h-263zM378 178h130v257h-130v-257zM719 0h-552q-20 0 -43.5 17t-43.5 41.5t-33.5 53.5t-13.5 53v283q0 24 13.5 53t33.5 53.5t43.5 41.5t43.5 17h552q20 0 43.5 -17t43.5 -41.5t33.5 -53.5t13.5 -53v-283q0 -24 -13.5 -53
t-33.5 -53.5t-43.5 -41.5t-43.5 -17z" />
    <glyph glyph-name="FL00F5h" unicode="&#xf5;" 
d="M448 840l55 -70l55 71h203l-117 -173h-209l-58 69l-52 -69h-200l121 172h202zM378 178h130v257h-130v-257zM719 0h-552q-20 0 -43.5 17t-43.5 41.5t-33.5 53.5t-13.5 53v283q0 24 13.5 53t33.5 53.5t43.5 41.5t43.5 17h552q20 0 43.5 -17t43.5 -41.5t33.5 -53.5t13.5 -53
v-283q0 -24 -13.5 -53t-33.5 -53.5t-43.5 -41.5t-43.5 -17z" />
    <glyph glyph-name="FL00F6h" unicode="&#xf6;" 
d="M110 668v172h293v-172h-293zM776 840v-172h-293v172h293zM378 178h130v257h-130v-257zM719 0h-552q-20 0 -43.5 17t-43.5 41.5t-33.5 53.5t-13.5 53v283q0 24 13.5 53t33.5 53.5t43.5 41.5t43.5 17h552q20 0 43.5 -17t43.5 -41.5t33.5 -53.5t13.5 -53v-283
q0 -24 -13.5 -53t-33.5 -53.5t-43.5 -41.5t-43.5 -17z" />
    <glyph glyph-name="FL00F7h" unicode="&#xf7;" horiz-adv-x="643" 
d="M610 397h-577v-180h577v180zM452 0v172h-261v-172h261zM191 613v-172h261v172h-261z" />
    <glyph glyph-name="FL00F8h" unicode="&#xf8;" 
d="M719 0h-552q-20 0 -43.5 17t-43.5 41.5t-33.5 53.5t-13.5 53v283q0 24 13.5 53t33.5 53.5t43.5 41.5t43.5 17h552q20 0 43.5 -17t43.5 -41.5t33.5 -53.5t13.5 -53v-283q0 -24 -13.5 -53t-33.5 -53.5t-43.5 -41.5t-43.5 -17zM360 435v-134l97 134h-97zM526 178v134
l-97 -134h97z" />
    <glyph glyph-name="FL00F9h" unicode="&#xf9;" 
d="M575 668l-87 172h-249l170 -172h166zM378 180v433h-345v-449q0 -23 13.5 -51.5t33.5 -53.5t43.5 -42t43.5 -17h552q20 0 43.5 17t43.5 42t33.5 53.5t13.5 51.5v449h-345v-433h-130z" />
    <glyph glyph-name="FL00FAh" unicode="&#xfa;" 
d="M398 840l-87 -172h166l170 172h-249zM378 180v433h-345v-449q0 -23 13.5 -51.5t33.5 -53.5t43.5 -42t43.5 -17h552q20 0 43.5 17t43.5 42t33.5 53.5t13.5 51.5v449h-345v-433h-130z" />
    <glyph glyph-name="FL00FBh" unicode="&#xfb;" 
d="M607 840h-327l-153 -172h263l55 71l55 -71h258zM378 180v433h-345v-449q0 -23 13.5 -51.5t33.5 -53.5t43.5 -42t43.5 -17h552q20 0 43.5 17t43.5 42t33.5 53.5t13.5 51.5v449h-345v-433h-130z" />
    <glyph glyph-name="FL00FCh" unicode="&#xfc;" 
d="M776 668v172h-293v-172h293zM110 840v-172h293v172h-293zM378 180v433h-345v-449q0 -23 13.5 -51.5t33.5 -53.5t43.5 -42t43.5 -17h552q20 0 43.5 17t43.5 42t33.5 53.5t13.5 51.5v449h-345v-433h-130z" />
    <glyph glyph-name="FL00FDh" unicode="&#xfd;" horiz-adv-x="860" 
d="M602 223v-223h-345v224l-237 389h342l68 -133l68 133h342zM271 668l87 172h249l-170 -172h-166z" />
    <glyph glyph-name="FL00FEh" unicode="&#xfe;" 
d="M378 0h-345v613h345v-93h341q20 0 43.5 -17t43.5 -41.5t33.5 -53.5t13.5 -53v-97q0 -24 -13.5 -53t-33.5 -53.5t-43.5 -41.5t-43.5 -17h-341v-93zM508 271v71h-130v-71h130z" />
    <glyph glyph-name="FL00FFh" unicode="&#xff;" horiz-adv-x="860" 
d="M763 668v172h-293v-172h293zM97 840v-172h293v172h-293zM602 0v223l238 390h-342l-68 -133l-68 133h-342l237 -389v-224h345z" />
    <glyph glyph-name="FL0152h" unicode="&#x152;" horiz-adv-x="1448" 
d="M1415 0h-1248q-20 0 -43.5 17t-43.5 41.5t-33.5 53.5t-13.5 53v283q0 24 13.5 53t33.5 53.5t43.5 41.5t43.5 17h1248v-178h-418v-43h418v-170h-418v-42h418v-180zM508 178v54h144v148h-144v55h-130v-257h130z" />
    <glyph glyph-name="FL0153h" unicode="&#x153;" horiz-adv-x="1384" 
d="M167 613h1184v-178h-418v-43h418v-170h-418v-42h418v-180h-1184q-20 0 -43.5 17t-43.5 42t-33.5 53.5t-13.5 51.5v284q0 24 13.5 53t33.5 53.5t43.5 41.5t43.5 17zM378 435v-255h210v255h-210z" />
    <glyph glyph-name="FL0160h" unicode="&#x160;" 
d="M278 668h327l153 172h-263l-55 -71l-55 71h-258zM853 435v178h-686q-20 0 -43.5 -17t-43.5 -41.5t-33.5 -53.5t-13.5 -53v-108q0 -23 15 -45t36 -39t44 -28t40 -11h340v-39h-475v-178h686q20 0 43.5 17t43.5 41.5t33.5 53.5t13.5 53v108q0 18 -14.5 39.5t-35.5 40.5
t-44 31.5t-41 12.5h-340v38h475z" />
    <glyph glyph-name="FL0161h" unicode="&#x161;" horiz-adv-x="879" 
d="M275 668h327l153 172h-263l-55 -71l-55 71h-258zM846 435v178h-679q-20 0 -43.5 -17t-43.5 -41.5t-33.5 -53.5t-13.5 -53v-115l424 -155h-424v-178h679q20 0 43.5 17t43.5 41.5t33.5 53.5t13.5 53v113l-425 157h425z" />
    <glyph glyph-name="FL0178h" unicode="&#x178;" 
d="M378 613v-216h130v216h345v-448q0 -24 -13.5 -53t-33.5 -53.5t-43.5 -41.5t-43.5 -17h-686v178h475v39h-340q-17 0 -40 12t-44 30t-36 39.5t-15 41.5v273h345zM110 668v172h293v-172h-293zM776 840v-172h-293v172h293z" />
    <glyph glyph-name="FL017Dh" unicode="&#x17d;" horiz-adv-x="879" 
d="M275 668h327l153 172h-263l-55 -71l-55 71h-258zM32 613v-178h425l-425 -157v-278h813v178h-424l424 155v280h-813z" />
    <glyph glyph-name="FL017Eh" unicode="&#x17e;" horiz-adv-x="831" 
d="M250 668h327l153 172h-263l-55 -71l-55 71h-258zM33 613v-178h378l-378 -173v-262h765v178h-377l377 171v264h-765z" />
    <glyph glyph-name="FL0192h" unicode="&#x192;" 
d="M853 178v-178h-686q-20 0 -43.5 17t-43.5 41.5t-33.5 53.5t-13.5 53v283q0 22 14.5 50.5t35.5 54t44 43t40 17.5h552q20 0 43.5 -17t43.5 -41.5t33.5 -53.5t13.5 -53v-108q0 -18 -14.5 -39.5t-35.5 -40.5t-44 -31.5t-41 -12.5h-340v-38h475zM508 391v42h-130v-42h130z
" />
    <glyph glyph-name="FL02C6h" unicode="&#x2c6;" horiz-adv-x="671" 
d="M173 683h327l151 -172h-258l-55 71l-55 -71h-263z" />
    <glyph glyph-name="FL02DCh" unicode="&#x2dc;" horiz-adv-x="676" 
d="M343 683l55 -70l55 71h203l-117 -173h-209l-58 69l-52 -69h-200l121 172h202z" />
    <glyph glyph-name="FL2013h" unicode="&#x2013;" horiz-adv-x="515" 
d="M33 397v-180h449v180h-449z" />
    <glyph glyph-name="FL2014h" unicode="&#x2014;" horiz-adv-x="633" 
d="M33 397h567v-180h-567v180z" />
    <glyph glyph-name="FL2018h" unicode="&#x2018;" horiz-adv-x="363" 
d="M32 284h297v329h-151l-146 -114v-215z" />
    <glyph glyph-name="FL2019h" unicode="&#x2019;" horiz-adv-x="363" 
d="M330 613h-297v-329h151l146 114v215z" />
    <glyph glyph-name="FL201Ah" unicode="&#x201a;" horiz-adv-x="363" 
d="M330 215h-297v-329h151l146 114v215z" />
    <glyph glyph-name="FL201Ch" unicode="&#x201c;" horiz-adv-x="639" 
d="M32 284h264v329h-118l-146 -114v-215zM341 284h264v329h-118l-146 -114v-215z" />
    <glyph glyph-name="FL201Dh" unicode="&#x201d;" horiz-adv-x="639" 
d="M606 613h-264v-329h118l146 114v215zM297 613h-264v-329h118l146 114v215z" />
    <glyph glyph-name="FL201Eh" unicode="&#x201e;" horiz-adv-x="639" 
d="M606 215h-264v-329h118l146 114v215zM297 215h-264v-329h118l146 114v215z" />
    <glyph glyph-name="FL2020h" unicode="&#x2020;" horiz-adv-x="591" 
d="M558 513v-180h-90v-333h-345v333h-90v180h90v100h345v-100h90z" />
    <glyph glyph-name="FL2021h" unicode="&#x2021;" horiz-adv-x="591" 
d="M558 513v-180h-90v-56h90v-180h-90v-97h-345v97h-90v180h90v56h-90v180h90v100h345v-100h90z" />
    <glyph glyph-name="FL2022h" unicode="&#x2022;" 
d="M719 0q20 0 43.5 17t43.5 41.5t33.5 53.5t13.5 53v283q0 24 -13.5 53t-33.5 53.5t-43.5 41.5t-43.5 17h-552q-20 0 -43.5 -17t-43.5 -41.5t-33.5 -53.5t-13.5 -53v-283q0 -24 13.5 -53t33.5 -53.5t43.5 -41.5t43.5 -17h552z" />
    <glyph glyph-name="FL2026h" unicode="&#x2026;" horiz-adv-x="1067" 
d="M1034 215h-297v-215h297v215zM682 215h-297v-215h297v215zM330 215h-297v-215h297v215z" />
    <glyph glyph-name="FL2030h" unicode="&#x2030;" horiz-adv-x="1589" 
d="M450 0l518 613h-269l-518 -613h269zM376 307q10 0 22 8.5t22 20.5t16.5 26.5t6.5 26.5v142q0 12 -6.5 26.5t-16.5 26.5t-22 20.5t-22 8.5h-276q-10 0 -21.5 -8.5t-21.5 -20.5t-17 -26.5t-7 -26.5v-142q0 -12 7 -26.5t17 -26.5t21.5 -20.5t21.5 -8.5h276zM260 410h-43v100
h43v-100zM1048 0q10 0 22 8.5t22 20.5t16.5 26.5t6.5 26.5v142q0 12 -6.5 26.5t-16.5 26.5t-22 20.5t-22 8.5h-276q-10 0 -21.5 -8.5t-21.5 -20.5t-17 -26.5t-7 -26.5v-142q0 -12 7 -26.5t17 -26.5t21.5 -20.5t21.5 -8.5h276zM932 103h-43v100h43v-100zM1489 0q10 0 22 8.5
t22 20.5t16.5 26.5t6.5 26.5v142q0 12 -6.5 26.5t-16.5 26.5t-22 20.5t-22 8.5h-276q-10 0 -21.5 -8.5t-21.5 -20.5t-17 -26.5t-7 -26.5v-142q0 -12 7 -26.5t17 -26.5t21.5 -20.5t21.5 -8.5h276zM1373 103h-43v100h43v-100z" />
    <glyph glyph-name="FL2039h" unicode="&#x2039;" horiz-adv-x="1128" 
d="M1108 0l-230 306l230 307h-350l-240 -307l240 -306h350zM610 0l-230 306l230 307h-350l-240 -307l240 -306h350z" />
    <glyph glyph-name="FL203Ah" unicode="&#x203a;" horiz-adv-x="630" 
d="M370 0l240 306l-240 307h-350l230 -307l-230 -306h350z" />
    <glyph glyph-name="FL20ACh" unicode="&#x20ac;" horiz-adv-x="995" 
d="M33 513h128q10 19 24 37t30 32t31.5 22.5t29.5 8.5h552q20 0 43.5 -17t43.5 -41.5t33.5 -53.5t13.5 -53v-68h-345v55h-71v-102h-59v-56h59v-99h71v54h345v-67q0 -24 -13.5 -53t-33.5 -53.5t-43.5 -41.5t-43.5 -17h-552q-14 0 -29.5 8t-30.5 21.5t-29 31t-24 36.5h-130
v180h109v56h-109v180z" />
    <glyph glyph-name="FL2122h" unicode="&#x2122;" horiz-adv-x="317" 
d="M158 653v-129h14v87l6 7l32 -86q2 -6 4.5 -7t5.5 -1t5 1.5t5.5 8.5t9 22t16.5 43q2 5 4 11l4 12l5 -9v-89h15v133h-6q-14 0 -26 -10t-20 -39q-3 -14 -5.5 -24t-6.5 -21l-7 21t-9 29l-2 7q-2 6 -6.5 13t-9.5 12.5t-9.5 9t-7.5 3.5q-1 0 -1.5 -0.5t0.5 -0.5l1 -1
q0 -1 -5 -1q-4 0 -6 -2zM24 636h46v-112h20v112h46v21h-112v-21z" />
    </font>
</defs>
</svg>
